<svg version="1.0" id="Layer_1" xmlns="http://www.w3.org/2000/svg" xmlns:xlink="http://www.w3.org/1999/xlink" x="0px" y="0px" viewBox="0 0 150.402 56.699" enable-background="new 0 0 150.402 56.699" xml:space="preserve" width="130px">
<path id="Path_538" fill="#EF4123" d="M75.201,24.303c5.102,0.001,9.238-4.135,9.239-9.237c0.001-5.102-4.135-9.238-9.237-9.239
	c-5.102-0.001-9.238,4.135-9.239,9.237c0,0.001,0,0.002,0,0.003C65.965,20.168,70.1,24.303,75.201,24.303z"></path>
<g id="Group_4688" transform="translate(74.729 0)">
<rect id="Rectangle_2009" x="0.002" y="0.001" fill="#EF4123" width="0.941" height="4.597"></rect>
</g>
<g id="Group_4689" transform="translate(80.07 1.73)">
<rect id="Rectangle_2010" x="-0.779" y="1.78" transform="matrix(0.4853 -0.8744 0.8744 0.4853 -1.1786 2.4997)" fill="#EF4123" width="4.626" height="0.941"></rect>
</g>
<g id="Group_4690" transform="translate(83.86 7.006)">
<rect id="Rectangle_2011" x="-0.094" y="1.135" transform="matrix(0.8516 -0.5241 0.5241 0.8516 -0.5144 1.3931)" fill="#EF4123" width="4.596" height="0.941"></rect>
</g>
<g id="Group_4691" transform="translate(67.409 1.696)">
<rect id="Rectangle_2012" x="1.058" y="-0.062" transform="matrix(0.873 -0.4877 0.4877 0.873 -0.8935 1.0287)" fill="#EF4123" width="0.941" height="4.583"></rect>
</g>
<g id="Group_4692" transform="translate(62.271 6.958)">
<rect id="Rectangle_2013" x="1.731" y="-0.71" transform="matrix(0.5116 -0.8592 0.8592 0.5116 -0.2757 2.6594)" fill="#EF4123" width="0.941" height="4.564"></rect>
</g>
<g id="Group_4693" transform="translate(0 12.531)">
<path id="Path_539" fill-rule="evenodd" clip-rule="evenodd" fill="#1A1818" d="M36.887,4.8
		c-7.488,4.833-10.291,6.212-10.291,6.212v4.745c9.592-4.545,15.473,1.252,15.473,1.252v1.625h4.492V4.851
		c0.014-1.011-0.552-1.942-1.457-2.393h8.05c-1.213,0.339-2.385,0.811-3.493,1.409c-0.716,0.473-1.095,1.317-0.972,2.167
		l5.489,2.281c0,0,0.671,0.2,0.7,0.682c0.04,0.575-0.7,0.754-0.7,0.754s-3.162,0.246-4.742,1.54
		c-1.138,0.938-0.873,1.747-0.873,1.747v2.358c0,0.2,0,0.363,0.1,0.466c1.043,0.88,2.302,1.465,3.647,1.694l1.938-1.057
		c-2.044-0.156-2.133-0.624-2.164-1.022c-0.016-0.318,0.317-1.343,4.6-1.562c3.834-0.195,7.6,2.555,7.6,2.555v2.15h4.484V4.946
		c0-0.79-0.218-3.965-4.236-3.965l-3.911-0.027H39.206v0.627c2.916,0.3,2.859,2.272,2.859,2.272v9.637
		c-2.087-1.705-4.647-2.728-7.334-2.932c1.699-0.96,3.294-2.093,4.759-3.382c0.517-0.486,0.622-1.268,0.252-1.874
		c-0.655-1.462-1.618-2.766-2.824-3.821c-1.233-0.992-2.914-1.223-4.369-0.6l-2.385,1.075c-6.12-3.431-9.755-0.245-9.755-0.245v0.7
		c-9.467-6.306-15.856,1.7-15.856,1.7v2.048l6.434-0.016L8.342,8.666v3.546l11.9-4.427v6.068c-1.738-1.061-3.816-1.419-5.809-1
		c-2.019,0.448-5.1,1.637-5.971,1.676c-3.964,0.177-4.226-2.619-4.272-4.044C4.157,9.47,5.317,9.621,5.317,9.621V7.882H0.148
		C-0.005,8.9-0.035,9.933,0.06,10.958c0.44,4.282,2.894,5.968,5.015,6.432c4.092,0.9,6.9-1.654,9.62-1.893
		c2.037-0.127,4.036,0.595,5.521,1.995v1.01h4.49V3.514c0.177-0.543,0.615-0.96,1.166-1.11c0.906-0.266,1.877-0.209,2.746,0.16
		c-0.489,0.268-0.956,0.572-1.4,0.909c-0.8,0.576-0.5,1.777-0.442,2.742s1.756,1.649,1.756,1.649l1.442-0.706
		c-1.317-0.436-0.527-1.26-0.527-1.26s5.088-2.372,5.966-2.753c0.153-0.07,0.31-0.131,0.47-0.183
		c0.346-0.148,0.747,0.012,0.896,0.358c0.002,0.004,0.003,0.007,0.005,0.011C36.99,3.762,37.302,4.532,36.887,4.8z M13.777,6.876
		c0,0-0.338,0.213-0.52,0.013c-0.086-0.086-0.032-0.247,0.167-0.437l1.03-0.946c0,0,0.9-0.844-0.356-0.906s-3.17-0.053-3.17-0.053
		s-0.595,0.073-0.637-0.2c-0.045-0.171,0.04-0.349,0.2-0.422c0.5-0.327,8.048-2.052,10.134,0.5L13.777,6.876z M61.777,9.076
		c0,0,0.35-1.273-2.142-2.356c-0.329-0.144-2.536-1.157-4.693-2.041c-0.272-0.124-0.393-0.445-0.269-0.718
		c0.072-0.157,0.214-0.271,0.383-0.306c0.646-0.234,4.09-1.2,4.09-1.2h3c1.148-0.026,2.1,0.884,2.126,2.031
		c0,0.019,0.001,0.038,0.001,0.058l0.01,8.319c-1.472-1.288-3.226-2.213-5.12-2.7L61.777,9.076z"></path>
</g>
<path id="Path_540" fill-rule="evenodd" clip-rule="evenodd" fill="#1A1818" d="M146.685,13.429H80.109v1.7h4.7
	c-5.06,1.544-4.539,4.069-4.539,4.069v4.426c0.122,2.213,2.66,1.965,2.66,1.965c1.39-0.22,2.758-0.564,4.088-1.025
	c0.938-0.263,1.835-0.654,2.667-1.161c0.999-0.301,1.565-1.354,1.264-2.353c-0.024-0.079-0.053-0.157-0.087-0.233
	c-0.527-0.904-1.214-1.705-2.027-2.363l-1.828,0.57l0.4,0.4c0.677,0.495-0.575,1.171-0.575,1.171l-2.919,0.924
	c-1.508,0.357-1-0.727-0.922-0.876c0.412-0.927,2.23-1.8,2.863-2.133c4.635-2.453,5.774-0.429,6.306,0.143
	c3.49,3.727,0.148,6.632-0.582,7.283c-2.559,2.389-5.912,3.746-9.412,3.811c-4.547,0.053-5.6-2.14-5.6-2.14l0.424-1.011
	l-1.635-0.843l-3.746,4.461c13.89,9.476,23.76-2.858,23.76-2.858c1.31,0.444,2.485,1.214,3.414,2.239v1.442h4.367v-13.57
	c-0.031-2.008-1.36-2.339-1.36-2.339h2.959c0.929,0.4,1.49,1.357,1.387,2.363v13.543h4.536V17.292
	c-0.018-1.955-1.445-2.165-1.445-2.165h9.868c-0.834,0.554-1.7,1.219-3.864,2.85c-1.229,0.907-1.911,2.376-1.812,3.9v4.3
	c0.082,0.817,0.48,1.571,1.108,2.1c1.907,1.566,4.093,2.756,6.444,3.507c3.378,0.991,5.111-1.007,5.111-1.007l1.56-1.679
	l-1.605-0.868c-1.144,1.814-4.017-0.14-4.017-0.14s-1.8-1.066-2.573-1.53c-2.229-1.424-2.186-2.055-2.186-2.055l0.021-4.912
	c0.207-1.48,5.289-4.468,5.289-4.468h14.694c1.011,0.38,1.641,1.391,1.535,2.466v2.938c-2.165-1.671-3.821-0.674-3.821-0.674
	l-2.714,1.354c0,0,0.685-0.975,1.512-2.14c0.775-1.1-0.3-1.45-2.632-2.525c-3.006-1.387-4.872,0.065-4.872,0.065
	c-1.316,0.726-2.585,1.533-3.8,2.417c-1.937,1.423-1.767,2.805-1.767,2.805v2.138c1.076,1.819,3.6,1.263,3.6,1.263l0.618-1.223
	c-1.586-0.094-1.285-0.8-1.062-1.075c0,0,6.073-3.7,7.185-4.283c0.165-0.086,0.539,0.05,0.39,0.372
	c-0.576,1.249-3.082,4.207-3.253,4.634c-1.051,2.7,0.772,3.422,0.772,3.422l7.474-3.693c1.939-0.929,2.373,0.481,2.373,0.481v7.355
	h4.358V17.593c0.069-1.063-0.543-2.052-1.524-2.466h2.934c0.994,0.408,1.619,1.403,1.556,2.476v13.621h4.285V17.591
	C150.402,15.912,149.565,13.429,146.685,13.429z M98.775,25.647c-0.547-0.766-1.259-1.398-2.085-1.849
	c0.192-3.928-2.291-7.492-6.043-8.671h6.791c0,0,1.316,0.331,1.337,2.353V25.647z"></path>
<path id="Path_541" fill="#6A5E5D" d="M150.34,46.166c0.002,5.658-4.583,10.247-10.241,10.249c-0.003,0-0.005,0-0.008,0H94.68
	c-1.101,0.003-2.195-0.176-3.238-0.528c5.368-2.591,7.62-9.043,5.03-14.411c-1.062-2.201-2.84-3.977-5.043-5.036
	c1.048-0.353,2.146-0.531,3.251-0.529h45.407c5.661-0.001,10.252,4.588,10.253,10.249C150.34,46.162,150.34,46.164,150.34,46.166z"></path>
<circle id="Ellipse_133" fill="#6A5E5D" cx="84.344" cy="46.161" r="9.941"></circle>
<g id="Group_4695" transform="translate(190.032 227.37)">
<path id="Path_542" fill="#FFFFFF" d="M-101.993-174.116c-0.425-0.366-0.885-0.69-1.373-0.966
		c-0.444-0.249-0.907-0.464-1.383-0.644c-0.455-0.171-0.92-0.315-1.393-0.43c-0.467-0.113-0.933-0.222-1.4-0.326l-0.251-0.519
		c-0.099-0.206-0.199-0.413-0.3-0.621c-0.101-0.208-0.197-0.401-0.288-0.58c-0.091-0.179-0.161-0.312-0.21-0.4
		c0.025-0.035,0.052-0.069,0.081-0.1c0.036-0.041,0.073-0.081,0.112-0.122c0.035-0.038,0.073-0.075,0.112-0.109
		c0.027-0.025,0.057-0.048,0.088-0.068c0.173,0.077,0.354,0.135,0.539,0.173c0.217,0.044,0.439,0.066,0.661,0.064
		c0.291-0.003,0.581-0.037,0.865-0.1c0.253-0.056,0.5-0.139,0.736-0.247c0.209-0.096,0.405-0.219,0.583-0.366
		c0.158-0.13,0.295-0.283,0.407-0.454c0.059-0.092,0.108-0.19,0.146-0.292c0.042-0.11,0.072-0.225,0.088-0.342
		c0.015-0.11,0.015-0.222,0-0.332c-0.01-0.098-0.045-0.192-0.1-0.274c-0.081-0.038-0.166-0.066-0.254-0.085
		c-0.102-0.021-0.206-0.024-0.309-0.01c-0.089,0.008-0.177,0.028-0.261,0.061c-0.073,0.028-0.142,0.064-0.207,0.108
		c-0.004,0.122-0.016,0.243-0.037,0.363c-0.018,0.11-0.059,0.214-0.119,0.308c-0.127,0.181-0.291,0.334-0.481,0.448
		c-0.198,0.122-0.413,0.215-0.637,0.275c-0.222,0.061-0.451,0.092-0.681,0.092c-0.207,0.002-0.412-0.032-0.607-0.1
		c-0.142-0.053-0.27-0.139-0.373-0.251c-0.103-0.112-0.182-0.245-0.23-0.39c-0.05-0.152-0.071-0.312-0.061-0.471
		c0.011-0.173,0.06-0.342,0.143-0.495c0.078-0.148,0.176-0.285,0.291-0.407c0.132-0.139,0.281-0.26,0.444-0.36
		c0.189-0.115,0.39-0.208,0.6-0.278c0.204-0.067,0.413-0.119,0.624-0.156l-0.014-0.007c-0.136-0.114-0.287-0.21-0.448-0.285
		c-0.067-0.031-0.133-0.061-0.2-0.088h-2.137l-0.773-0.847l0.21-0.38h4.943c0.099-0.059,0.197-0.12,0.292-0.183
		c0.107-0.069,0.207-0.147,0.3-0.234c0.075-0.068,0.138-0.148,0.187-0.237c0.04-0.072,0.046-0.158,0.014-0.234
		c-0.034-0.035-0.08-0.054-0.129-0.054c-0.07-0.005-0.14-0.005-0.21,0c-0.081,0.007-0.173,0.018-0.275,0.034
		s-0.209,0.03-0.322,0.044c-0.176,0.023-0.366,0.045-0.57,0.068c-0.204,0.023-0.413,0.043-0.627,0.061
		c-0.215,0.018-0.432,0.032-0.651,0.041c-0.219,0.009-0.431,0.012-0.634,0.007c-0.272-0.006-0.542-0.054-0.8-0.143
		c-0.201-0.072-0.391-0.173-0.563-0.3c-0.149-0.11-0.279-0.242-0.387-0.393c-0.102-0.145-0.191-0.285-0.268-0.42
		c-0.097-0.173-0.162-0.361-0.193-0.556c-0.034-0.202-0.039-0.407-0.014-0.61c0.024-0.2,0.073-0.396,0.146-0.583
		c0.068-0.177,0.164-0.342,0.285-0.488c0.009,0.009,0.04,0.033,0.092,0.071s0.113,0.085,0.183,0.139l0.231,0.18l0.241,0.19
		l0.21,0.166c0.047,0.036,0.093,0.075,0.136,0.116c-0.086,0.027-0.171,0.058-0.254,0.091c-0.078,0.031-0.154,0.069-0.227,0.112
		c-0.058,0.033-0.112,0.074-0.159,0.122c-0.034,0.032-0.055,0.075-0.058,0.122c0.022,0.1,0.085,0.186,0.173,0.237
		c0.111,0.07,0.233,0.121,0.36,0.153c0.155,0.041,0.314,0.068,0.474,0.081c0.174,0.016,0.349,0.024,0.526,0.024
		c0.135,0,0.294,0,0.474-0.014l0.553-0.027l0.542-0.027l0.444-0.02c0.368-0.023,0.736,0.057,1.061,0.231
		c0.333,0.189,0.62,0.451,0.838,0.766c0.118,0.165,0.214,0.346,0.285,0.536c0.065,0.172,0.103,0.353,0.115,0.536
		c0.005,0.132-0.007,0.264-0.034,0.393h0.122l0.624,0.6l0.21,0.2l-0.271,0.42h-3.268c0.031,0.086,0.058,0.17,0.081,0.251
		c0.009,0.022,0.016,0.045,0.02,0.068c0.117,0.009,0.233,0.023,0.346,0.041c0.326,0.047,0.644,0.142,0.943,0.281
		c0.266,0.123,0.511,0.285,0.729,0.481c0.189,0.167,0.349,0.366,0.471,0.587c0.092,0.154,0.166,0.317,0.22,0.488
		c0.058,0.179,0.091,0.365,0.1,0.553c0.009,0.201-0.009,0.403-0.051,0.6c-0.047,0.216-0.123,0.425-0.227,0.621
		c-0.097,0.186-0.216,0.36-0.353,0.518c-0.133,0.154-0.282,0.292-0.444,0.414c-0.16,0.119-0.33,0.225-0.508,0.315
		c-0.173,0.088-0.351,0.165-0.533,0.231v0.047c0.375,0.169,0.737,0.368,1.081,0.593c0.351,0.228,0.676,0.461,0.977,0.7
		s0.572,0.472,0.814,0.7c0.242,0.229,0.442,0.424,0.6,0.587L-101.993-174.116z"></path>
</g>
<g>
<path fill="#FFFFFF" d="M111.559,43.022l-0.834-0.813h-8.429l-0.212,0.383l0.779,0.854h0.123c0.078,0.219,0.172,0.437,0.283,0.653
		c0.112,0.216,0.221,0.381,0.325,0.495c0.15,0.055,0.331,0.083,0.54,0.085c0.209,0.003,0.424,0.006,0.643,0.011
		s0.43,0.024,0.633,0.058c0.202,0.035,0.372,0.111,0.509,0.229c0.027,0.137,0.038,0.278,0.03,0.424
		c-0.006,0.146-0.021,0.287-0.044,0.424s-0.052,0.262-0.085,0.376c-0.035,0.114-0.065,0.207-0.093,0.28
		c-0.183,0.183-0.355,0.341-0.52,0.476c-0.164,0.134-0.328,0.237-0.492,0.311c-0.146-0.114-0.254-0.266-0.325-0.455
		c-0.07-0.188-0.117-0.372-0.14-0.55l-1.114,0.793c0.096,0.178,0.218,0.383,0.365,0.615c0.148,0.232,0.314,0.451,0.5,0.656
		c0.184,0.205,0.386,0.378,0.604,0.52s0.444,0.212,0.677,0.212c0.25,0,0.506-0.089,0.766-0.267s0.54-0.449,0.841-0.813
		c0.164-0.2,0.308-0.375,0.431-0.523c0.123-0.147,0.234-0.276,0.335-0.386s0.194-0.2,0.28-0.273s0.178-0.135,0.273-0.185
		c0.141,0.091,0.262,0.211,0.362,0.359c0.101,0.147,0.194,0.345,0.28,0.591c-0.01,0.524-0.023,1.004-0.045,1.438
		c-0.02,0.436-0.035,0.817-0.044,1.146c0.032,0.055,0.102,0.131,0.208,0.229c0.107,0.098,0.224,0.199,0.35,0.304
		c0.125,0.104,0.248,0.203,0.369,0.294c0.12,0.091,0.211,0.157,0.27,0.198c0.023-0.014,0.067-0.047,0.133-0.099
		c0.066-0.053,0.137-0.111,0.213-0.175c0.074-0.063,0.146-0.126,0.215-0.188c0.068-0.061,0.116-0.11,0.144-0.146
		c-0.014-0.077-0.024-0.179-0.03-0.305c-0.008-0.125-0.012-0.287-0.014-0.484c-0.003-0.199-0.005-0.437-0.008-0.715
		c-0.002-0.278-0.006-0.608-0.01-0.991c-0.004-0.351-0.01-0.72-0.014-1.107s-0.008-0.78-0.01-1.179
		c-0.003-0.399-0.005-0.797-0.008-1.193c-0.002-0.396-0.003-0.777-0.003-1.142h0.725L111.559,43.022z M108.383,45.09
		c-0.18-0.188-0.355-0.283-0.529-0.283c-0.051,0-0.089,0.005-0.116,0.014c-0.173,0.041-0.323,0.096-0.451,0.164
		s-0.249,0.152-0.362,0.253c-0.037-0.228-0.08-0.425-0.13-0.591c-0.05-0.167-0.117-0.316-0.202-0.448
		c-0.084-0.132-0.188-0.258-0.314-0.376c-0.125-0.118-0.279-0.244-0.461-0.376h3.062c0.004,0.155,0.007,0.312,0.007,0.472
		s0,0.319,0,0.479v1.162c0,0.041,0,0.082,0,0.123s0.003,0.084,0.007,0.13C108.732,45.52,108.563,45.279,108.383,45.09z"></path>
<path fill="#FFFFFF" d="M112.229,45.798c0.246,0.255,0.51,0.438,0.793,0.547s0.564,0.164,0.848,0.164
		c0.328,0,0.639-0.062,0.934-0.188c0.293-0.125,0.543-0.292,0.748-0.502c0.164-0.169,0.289-0.374,0.376-0.615s0.13-0.496,0.13-0.762
		c0-0.268-0.049-0.533-0.146-0.801c-0.099-0.266-0.252-0.509-0.462-0.728c-0.214-0.232-0.47-0.409-0.766-0.53
		c-0.296-0.12-0.606-0.181-0.93-0.181c-0.251,0-0.498,0.04-0.741,0.12c-0.244,0.079-0.471,0.203-0.681,0.372
		c-0.301,0.232-0.509,0.49-0.626,0.772c-0.115,0.282-0.166,0.565-0.15,0.848c0.017,0.282,0.087,0.554,0.213,0.813
		C111.893,45.388,112.047,45.611,112.229,45.798z M113.008,44.485c0.055-0.109,0.122-0.216,0.201-0.317
		c0.08-0.104,0.168-0.193,0.264-0.271c0.178-0.146,0.375-0.259,0.592-0.339c0.216-0.079,0.404-0.119,0.563-0.119
		c0.077,0,0.142,0.009,0.191,0.027c0.032,0.082,0.036,0.177,0.014,0.283c-0.022,0.107-0.063,0.217-0.123,0.328
		c-0.06,0.112-0.131,0.223-0.216,0.332c-0.084,0.109-0.172,0.205-0.263,0.287c-0.068,0.063-0.147,0.125-0.239,0.185
		s-0.188,0.11-0.287,0.153c-0.1,0.044-0.198,0.078-0.294,0.104c-0.096,0.024-0.185,0.037-0.267,0.037
		c-0.092,0-0.162-0.016-0.212-0.048c-0.036-0.096-0.047-0.199-0.03-0.312C112.918,44.705,112.953,44.595,113.008,44.485z"></path>
<path fill="#FFFFFF" d="M114.423,48.081c-0.41-0.355-0.808-0.668-1.192-0.937c-0.386-0.269-0.74-0.487-1.063-0.656
		c-0.06,0.036-0.14,0.098-0.243,0.185c-0.102,0.087-0.186,0.159-0.249,0.219l-0.062,0.055c0.01,0.046,0.037,0.156,0.086,0.331
		c0.047,0.176,0.099,0.366,0.153,0.571s0.106,0.403,0.157,0.595s0.078,0.328,0.082,0.41c0.287,0.118,0.595,0.246,0.923,0.383
		s0.664,0.297,1.009,0.482c0.344,0.184,0.692,0.4,1.045,0.648c0.354,0.249,0.699,0.546,1.036,0.893
		c0.014-0.005,0.056-0.033,0.126-0.086c0.071-0.052,0.148-0.11,0.232-0.174c0.085-0.063,0.162-0.124,0.232-0.182
		c0.071-0.057,0.113-0.092,0.127-0.105c-0.369-0.515-0.759-0.993-1.169-1.436S114.833,48.437,114.423,48.081z"></path>
<path fill="#FFFFFF" d="M132.572,49.462v-0.595c-0.004-0.191-0.008-0.424-0.01-0.697c-0.003-0.273-0.004-0.569-0.004-0.889
		s0.001-0.65,0.004-0.994c0.002-0.345,0.003-0.686,0.003-1.022s0.001-0.662,0.003-0.974c0.003-0.312,0.004-0.594,0.004-0.845h0.561
		l0.273-0.424l-0.841-0.813h-7.294h-0.082h-9.276l-0.212,0.383l0.779,0.854h2.447c-0.068,0.191-0.15,0.367-0.246,0.526
		s-0.195,0.302-0.297,0.428c-0.104,0.125-0.207,0.23-0.312,0.317s-0.2,0.15-0.287,0.191c-0.06-0.036-0.112-0.087-0.161-0.15
		c-0.047-0.063-0.088-0.134-0.123-0.208c-0.033-0.076-0.062-0.154-0.085-0.236s-0.038-0.159-0.048-0.232
		c-0.068,0.019-0.146,0.048-0.232,0.089s-0.174,0.085-0.26,0.134c-0.086,0.047-0.166,0.097-0.239,0.146s-0.13,0.096-0.171,0.137
		c0.109,0.306,0.234,0.587,0.376,0.844c0.142,0.258,0.293,0.479,0.454,0.664c0.162,0.184,0.33,0.328,0.503,0.43
		c0.173,0.104,0.347,0.154,0.52,0.154c0.022,0,0.047-0.001,0.071-0.004c0.025-0.002,0.049-0.005,0.072-0.01
		c0.119-0.019,0.256-0.077,0.41-0.178s0.312-0.237,0.472-0.41s0.315-0.381,0.468-0.622c0.153-0.241,0.287-0.511,0.4-0.807h0.027
		c0.119,0.314,0.258,0.586,0.417,0.813s0.335,0.419,0.526,0.574c-0.383,0.082-0.746,0.199-1.09,0.352
		c-0.345,0.153-0.664,0.324-0.961,0.514c-0.297,0.188-0.566,0.387-0.811,0.594c-0.243,0.208-0.459,0.409-0.646,0.605
		c0.022,0.032,0.089,0.123,0.198,0.273s0.233,0.318,0.373,0.502c0.139,0.186,0.279,0.371,0.42,0.558s0.253,0.335,0.335,0.444
		c0.301,0,0.585,0.034,0.851,0.103c0.268,0.068,0.509,0.169,0.725,0.301c0.217,0.132,0.401,0.299,0.555,0.499
		c0.152,0.2,0.263,0.431,0.331,0.69c0.05,0.027,0.128,0.08,0.232,0.157s0.213,0.158,0.325,0.242
		c0.111,0.085,0.211,0.161,0.301,0.229c0.088,0.068,0.14,0.109,0.153,0.123c0.019-0.009,0.056-0.03,0.112-0.065
		c0.058-0.033,0.119-0.07,0.186-0.109c0.065-0.038,0.125-0.074,0.178-0.109c0.052-0.033,0.085-0.056,0.099-0.064
		c-0.027-0.237-0.046-0.48-0.055-0.731s-0.014-0.562-0.014-0.937c-0.005-0.101-0.007-0.204-0.007-0.311c0-0.107,0-0.221,0-0.339
		v-0.711c0-0.246,0.001-0.491,0.004-0.735c0.002-0.243,0.003-0.481,0.003-0.714c0.369,0.014,0.698,0.07,0.987,0.171
		c0.29,0.101,0.5,0.232,0.633,0.396c-0.004,0.2-0.051,0.374-0.137,0.52c-0.068-0.019-0.144-0.027-0.226-0.027
		c-0.15,0-0.288,0.027-0.413,0.082c-0.126,0.055-0.232,0.13-0.322,0.226c-0.088,0.096-0.158,0.21-0.208,0.342
		s-0.075,0.275-0.075,0.431c0,0.142,0.027,0.279,0.082,0.414c0.055,0.134,0.13,0.255,0.226,0.361
		c0.096,0.107,0.208,0.193,0.335,0.257s0.264,0.096,0.41,0.096h0.109c0.188-0.009,0.367-0.061,0.54-0.153
		c0.173-0.094,0.323-0.223,0.451-0.387s0.224-0.361,0.287-0.592c0.063-0.229,0.079-0.483,0.048-0.762
		c-0.027-0.429-0.141-0.806-0.342-1.131c-0.201-0.326-0.451-0.626-0.752-0.899c-0.242-0.224-0.506-0.398-0.793-0.526
		c0.1-0.063,0.182-0.128,0.246-0.191c0.15-0.137,0.256-0.308,0.314-0.513s0.075-0.425,0.048-0.659
		c-0.027-0.235-0.097-0.475-0.208-0.719c-0.112-0.243-0.266-0.473-0.462-0.687h1.996h0.082h5.011c0,0.055,0.001,0.11,0.004,0.167
		c0.002,0.058,0.003,0.118,0.003,0.182c-0.538,0.077-1.052,0.205-1.542,0.383c-0.489,0.178-0.943,0.384-1.363,0.619
		c-0.42,0.234-0.797,0.488-1.131,0.762c-0.336,0.273-0.617,0.545-0.845,0.813c0.073,0.091,0.177,0.222,0.312,0.394
		c0.134,0.17,0.275,0.353,0.424,0.547c0.147,0.193,0.293,0.384,0.434,0.57s0.253,0.34,0.335,0.458
		c0.063-0.009,0.13-0.016,0.198-0.021s0.139-0.007,0.212-0.007c0.269,0,0.55,0.036,0.845,0.109c0.293,0.073,0.574,0.187,0.84,0.342
		c0.268,0.155,0.509,0.355,0.725,0.602c0.217,0.246,0.387,0.54,0.51,0.882c0.051,0.041,0.136,0.104,0.256,0.188
		c0.121,0.085,0.246,0.173,0.377,0.264c0.129,0.091,0.248,0.176,0.355,0.253c0.106,0.077,0.172,0.128,0.194,0.15
		c0.009-0.005,0.022-0.015,0.041-0.03c0.019-0.017,0.044-0.036,0.075-0.059l0.205-0.15c0.072-0.055,0.141-0.105,0.201-0.154
		c0.062-0.047,0.1-0.076,0.113-0.085c-0.018-0.2-0.031-0.383-0.041-0.547S132.572,49.708,132.572,49.462z M120.787,49.243
		c-0.291-0.228-0.608-0.419-0.95-0.574l-0.014-0.007l-0.007-0.027c0.191-0.205,0.428-0.396,0.707-0.57
		c0.281-0.176,0.602-0.323,0.961-0.441c0.004,0.251,0.008,0.531,0.01,0.841c0.003,0.31,0.004,0.656,0.004,1.039
		c0,0.123,0.001,0.232,0.004,0.328c0.002,0.096,0.008,0.185,0.017,0.267C121.322,49.756,121.078,49.471,120.787,49.243z
		 M122.787,44.242c-0.03,0.08-0.09,0.149-0.182,0.209c-0.168,0.109-0.362,0.164-0.581,0.164c-0.278,0-0.55-0.096-0.817-0.287
		c-0.266-0.191-0.471-0.485-0.611-0.882h1.894c0.082,0.082,0.15,0.17,0.205,0.263c0.055,0.094,0.091,0.187,0.109,0.277
		S122.816,44.163,122.787,44.242z M130.877,48.854c-0.137-0.273-0.295-0.52-0.475-0.738c-0.181-0.219-0.365-0.409-0.555-0.57
		c-0.188-0.162-0.377-0.298-0.563-0.407s-0.358-0.193-0.513-0.253c-0.01-0.009-0.014-0.016-0.014-0.021s-0.004-0.012-0.014-0.021
		c0.223-0.205,0.523-0.402,0.898-0.592c0.377-0.188,0.783-0.338,1.221-0.447c0.004,0.173,0.007,0.348,0.007,0.523
		c0,0.175,0,0.352,0,0.529v1.039c0,0.205,0.005,0.387,0.014,0.543c0.009,0.158,0.021,0.291,0.034,0.4L130.877,48.854z"></path>
<path fill="#FFFFFF" d="M129.517,49.359c-0.123-0.123-0.267-0.221-0.431-0.294s-0.34-0.109-0.526-0.109
		c-0.191,0-0.369,0.036-0.533,0.109c-0.164,0.073-0.308,0.171-0.431,0.294s-0.22,0.268-0.291,0.434
		c-0.07,0.167-0.105,0.344-0.105,0.53s0.035,0.361,0.105,0.522c0.071,0.162,0.168,0.303,0.291,0.421s0.267,0.212,0.431,0.28
		c0.164,0.068,0.342,0.103,0.533,0.103c0.187,0,0.362-0.034,0.526-0.103s0.308-0.162,0.431-0.28s0.22-0.259,0.29-0.421
		c0.071-0.161,0.106-0.336,0.106-0.522s-0.035-0.363-0.106-0.53C129.736,49.627,129.64,49.482,129.517,49.359z"></path>
<path fill="#FFFFFF" d="M140.078,42.209c-0.123,0-0.227-0.006-0.311-0.018c-0.085-0.011-0.156-0.025-0.216-0.044
		s-0.108-0.036-0.147-0.055c-0.038-0.019-0.074-0.034-0.105-0.048c-0.055-0.036-0.113-0.083-0.174-0.141
		c-0.062-0.057-0.121-0.115-0.178-0.178c-0.058-0.061-0.112-0.123-0.164-0.184c-0.053-0.062-0.1-0.12-0.141-0.175l-0.793,0.54
		c0.195,0.314,0.335,0.666,0.417,1.057c0.082,0.389,0.134,0.805,0.157,1.247h-0.055c-0.092-0.219-0.215-0.44-0.373-0.667
		c-0.156-0.225-0.331-0.433-0.522-0.621c-0.191-0.189-0.394-0.348-0.604-0.476c-0.213-0.128-0.418-0.205-0.619-0.232
		c-0.045-0.009-0.092-0.014-0.137-0.014s-0.092,0-0.137,0c-0.256,0-0.521,0.039-0.797,0.116c-0.275,0.077-0.539,0.195-0.789,0.352
		c-0.25,0.158-0.479,0.354-0.688,0.592c-0.207,0.237-0.372,0.515-0.495,0.834c-0.114,0.301-0.175,0.598-0.185,0.893
		c-0.01,0.293,0.023,0.577,0.096,0.851s0.182,0.531,0.328,0.772s0.316,0.463,0.513,0.663c0.219,0.251,0.481,0.442,0.786,0.574
		s0.617,0.198,0.937,0.198c0.068,0,0.137-0.002,0.205-0.007s0.134-0.014,0.198-0.027c0.195-0.022,0.385-0.079,0.567-0.167
		c0.183-0.09,0.345-0.203,0.489-0.342c0.143-0.14,0.26-0.3,0.352-0.482s0.141-0.381,0.15-0.595c0.01-0.187-0.023-0.364-0.096-0.533
		c-0.092-0.26-0.25-0.473-0.475-0.64c-0.227-0.166-0.482-0.249-0.77-0.249c-0.174,0-0.338,0.028-0.492,0.085
		c-0.154,0.058-0.291,0.139-0.406,0.243c-0.117,0.104-0.209,0.231-0.277,0.38c-0.068,0.147-0.103,0.311-0.103,0.488
		c0,0.2,0.036,0.39,0.109,0.567c-0.019-0.005-0.034-0.009-0.048-0.014s-0.025-0.009-0.034-0.014c-0.15-0.123-0.255-0.28-0.314-0.472
		s-0.079-0.39-0.062-0.595s0.068-0.407,0.15-0.604c0.082-0.199,0.189-0.368,0.321-0.51c0.191-0.241,0.435-0.411,0.728-0.51
		c0.295-0.098,0.59-0.146,0.886-0.146c0.159,0.063,0.317,0.146,0.472,0.25c0.154,0.102,0.3,0.23,0.434,0.386
		c0.135,0.155,0.257,0.336,0.366,0.544c0.109,0.207,0.198,0.447,0.267,0.721v1.114c0,0.569-0.004,1.135-0.014,1.695
		s-0.021,1.058-0.034,1.49c0.036,0.055,0.106,0.134,0.212,0.235c0.105,0.104,0.219,0.209,0.342,0.318s0.242,0.212,0.355,0.308
		s0.198,0.164,0.253,0.205c0.027-0.019,0.073-0.052,0.137-0.099c0.063-0.049,0.13-0.101,0.198-0.158
		c0.068-0.057,0.133-0.111,0.195-0.164c0.061-0.052,0.104-0.092,0.126-0.119c-0.014-0.077-0.024-0.192-0.034-0.346
		c-0.01-0.152-0.015-0.329-0.018-0.529c-0.002-0.2-0.004-0.419-0.006-0.656c-0.003-0.237-0.004-0.474-0.004-0.711v-3.418
		c0-0.214-0.008-0.404-0.023-0.57c-0.017-0.167-0.041-0.319-0.072-0.459c-0.031-0.139-0.07-0.266-0.116-0.383
		c-0.046-0.115-0.099-0.23-0.157-0.345c0.092,0.041,0.219,0.09,0.383,0.147c0.164,0.057,0.362,0.085,0.595,0.085h0.082l0.239-0.396
		L140.078,42.209z"></path>
</g>
</svg>
